<svg xmlns="http://www.w3.org/2000/svg" width="320" height="320" fill="none" stroke="white" stroke-width="1.4" stroke-linecap="round" stroke-linejoin="round">

  <!-- Heart -->
  <g transform="translate(28,26) rotate(-15)">
    <path d="M0,6 C-1,4,-7,0,-7,-3 A4,4,0,0,1,0,-4 A4,4,0,0,1,7,-3 C7,0,1,4,0,6Z"/>
  </g>

  <!-- NFC waves -->
  <g transform="translate(80,20)">
    <circle cx="0" cy="2" r="1.8" fill="white" stroke="none"/>
    <path d="M-4,-1 A5,5,0,0,1,4,-1"/>
    <path d="M-7,-4 A9,9,0,0,1,7,-4"/>
    <path d="M-10,-7 A13,13,0,0,1,10,-7"/>
  </g>

  <!-- 5-pointed star -->
  <g transform="translate(132,28) rotate(12)">
    <polygon points="0,-7,2,-2,7,-2,3,1,5,6,0,3,-5,6,-3,1,-7,-2,-2,-2"/>
  </g>

  <!-- Credit card -->
  <g transform="translate(182,22) rotate(5)">
    <rect x="-9" y="-6" width="18" height="12" rx="2"/>
    <line x1="-9" y1="-1" x2="9" y2="-1"/>
    <rect x="-7" y="2" width="5" height="2.5" rx="0.5"/>
  </g>

  <!-- Lightning bolt -->
  <g transform="translate(234,28) rotate(-10)">
    <path d="M1,-7 L-3,1 L1,1 L-1,7 L5,0 L1,0 Z"/>
  </g>

  <!-- Phone -->
  <g transform="translate(278,22) rotate(15)">
    <rect x="-5" y="-9" width="10" height="18" rx="2"/>
    <line x1="-2" y1="6" x2="2" y2="6"/>
  </g>

  <!-- Lock -->
  <g transform="translate(308,44)">
    <rect x="-5" y="-1" width="10" height="9" rx="1"/>
    <path d="M-3,-1 L-3,-4 A3,3,0,0,1,3,-4 L3,-1"/>
  </g>

  <!-- Clock -->
  <g transform="translate(16,75) rotate(5)">
    <circle cx="0" cy="0" r="7"/>
    <line x1="0" y1="0" x2="0" y2="-4"/>
    <line x1="0" y1="0" x2="3" y2="2"/>
  </g>

  <!-- Music note -->
  <g transform="translate(60,80) rotate(-8)">
    <line x1="2" y1="-7" x2="2" y2="4"/>
    <line x1="2" y1="-7" x2="8" y2="-9"/>
    <line x1="8" y1="-9" x2="8" y2="2"/>
    <path d="M2,4 A2.5,2,0,1,1,2,5"/>
    <path d="M8,2 A2.5,2,0,1,1,8,3"/>
  </g>

  <!-- Dollar coin -->
  <g transform="translate(110,74)">
    <circle cx="0" cy="0" r="7"/>
    <line x1="0" y1="-4" x2="0" y2="4"/>
    <path d="M-3,-2 Q-3,-4,0,-4 Q3,-4,3,-2 Q3,0,0,0 Q3,0,3,2 Q3,4,0,4 Q-3,4,-3,2"/>
  </g>

  <!-- Speech bubble -->
  <g transform="translate(162,78) rotate(8)">
    <path d="M-7,-7 Q-7,-10,-4,-10 L4,-10 Q7,-10,7,-7 L7,1 Q7,4,4,4 L0,4 L-3,7 L-2,4 Q-7,4,-7,1 Z"/>
  </g>

  <!-- Gem / diamond -->
  <g transform="translate(210,72) rotate(15)">
    <polygon points="0,-9,7,0,0,9,-7,0"/>
    <line x1="-7" y1="0" x2="7" y2="0"/>
    <line x1="-4" y1="-5" x2="4" y2="-5"/>
  </g>

  <!-- Bar chart -->
  <g transform="translate(260,76)">
    <line x1="-7" y1="7" x2="7" y2="7"/>
    <rect x="-6" y="1" width="3.5" height="6"/>
    <rect x="-1" y="-4" width="3.5" height="11"/>
    <rect x="4" y="-1" width="3.5" height="8"/>
  </g>

  <!-- Shield -->
  <g transform="translate(304,74) rotate(-5)">
    <path d="M0,-8 L7,-5 L7,1 Q7,7,0,10 Q-7,7,-7,1 L-7,-5 Z"/>
  </g>

  <!-- Leaf -->
  <g transform="translate(34,132) rotate(20)">
    <path d="M0,8 C-6,4,-8,-3,0,-8 C8,-3,6,4,0,8 Z"/>
    <line x1="0" y1="8" x2="0" y2="-6"/>
  </g>

  <!-- Fingerprint -->
  <g transform="translate(84,126)">
    <path d="M-4,7 C-8,4,-9,-1,-7,-5 C-5,-9,-1,-11,3,-10"/>
    <path d="M-2,7 C-5,4,-6,0,-5,-3 C-4,-6,-1,-8,2,-7"/>
    <path d="M0,7 C-2,4,-2,1,-1,-1 C0,-3,2,-4,4,-3"/>
    <path d="M7,5 C9,1,9,-4,6,-7 C3,-10,-2,-11,-6,-9"/>
  </g>

  <!-- 4-point sparkle -->
  <g transform="translate(134,130) rotate(45)">
    <path d="M0,-9 L1.5,-1.5 L9,0 L1.5,1.5 L0,9 L-1.5,1.5 L-9,0 L-1.5,-1.5 Z"/>
  </g>

  <!-- Wallet -->
  <g transform="translate(184,124) rotate(-8)">
    <rect x="-8" y="-6" width="16" height="12" rx="2"/>
    <rect x="4" y="-3" width="5" height="6" rx="1"/>
    <circle cx="6.5" cy="0" r="1.2" fill="white" stroke="none"/>
  </g>

  <!-- Sun -->
  <g transform="translate(234,130)">
    <circle cx="0" cy="0" r="4"/>
    <line x1="0" y1="-7" x2="0" y2="-5"/>
    <line x1="0" y1="5" x2="0" y2="7"/>
    <line x1="-7" y1="0" x2="-5" y2="0"/>
    <line x1="5" y1="0" x2="7" y2="0"/>
    <line x1="-5" y1="-5" x2="-3.5" y2="-3.5"/>
    <line x1="3.5" y1="-3.5" x2="5" y2="-5"/>
    <line x1="-5" y1="5" x2="-3.5" y2="3.5"/>
    <line x1="3.5" y1="3.5" x2="5" y2="5"/>
  </g>

  <!-- Fire / flame -->
  <g transform="translate(282,124) rotate(5)">
    <path d="M0,8 C-5,8,-7,3,-4,-2 C-2,1,-1,0,0,-2 C1,-5,0,-9,2,-8 C4,-3,6,2,5,6 C5,8,3,9,0,8 Z"/>
  </g>

  <!-- QR code corners -->
  <g transform="translate(310,144) rotate(-12)">
    <rect x="-8" y="-8" width="6" height="6" rx="0.5"/>
    <rect x="2" y="-8" width="6" height="6" rx="0.5"/>
    <rect x="-8" y="2" width="6" height="6" rx="0.5"/>
    <rect x="0" y="0" width="2" height="2"/>
    <rect x="3" y="3" width="2" height="2"/>
  </g>

  <!-- NFC (rotated 90°) -->
  <g transform="translate(16,180) rotate(90)">
    <circle cx="0" cy="2" r="1.8" fill="white" stroke="none"/>
    <path d="M-4,-1 A5,5,0,0,1,4,-1"/>
    <path d="M-7,-4 A9,9,0,0,1,7,-4"/>
    <path d="M-10,-7 A13,13,0,0,1,10,-7"/>
  </g>

  <!-- Heart (small) -->
  <g transform="translate(64,176) rotate(10) scale(0.85)">
    <path d="M0,6 C-1,4,-7,0,-7,-3 A4,4,0,0,1,0,-4 A4,4,0,0,1,7,-3 C7,0,1,4,0,6Z"/>
  </g>

  <!-- Star (small) -->
  <g transform="translate(114,182) rotate(-15) scale(0.85)">
    <polygon points="0,-7,2,-2,7,-2,3,1,5,6,0,3,-5,6,-3,1,-7,-2,-2,-2"/>
  </g>

  <!-- Coffee cup -->
  <g transform="translate(164,175)">
    <rect x="-6" y="-3" width="12" height="10" rx="1.5"/>
    <path d="M6,-1 Q10,0,10,3 Q10,6,6,6"/>
    <path d="M-4,-3 Q-4,-6,-2,-7 Q0,-8,0,-6"/>
    <path d="M0,-3 Q0,-6,2,-7 Q4,-8,4,-6"/>
  </g>

  <!-- Lightning (small) -->
  <g transform="translate(214,180) rotate(20) scale(0.85)">
    <path d="M1,-7 L-3,1 L1,1 L-1,7 L5,0 L1,0 Z"/>
  </g>

  <!-- Gift box -->
  <g transform="translate(264,174) rotate(-5)">
    <rect x="-7" y="-2" width="14" height="10" rx="1"/>
    <line x1="-7" y1="2" x2="7" y2="2"/>
    <line x1="0" y1="-2" x2="0" y2="8"/>
    <path d="M0,-2 C-2,-6,-5,-5,-3,-3"/>
    <path d="M0,-2 C2,-6,5,-5,3,-3"/>
  </g>

  <!-- Phone (small) -->
  <g transform="translate(308,180) rotate(-10) scale(0.85)">
    <rect x="-5" y="-9" width="10" height="18" rx="2"/>
    <line x1="-2" y1="6" x2="2" y2="6"/>
  </g>

  <!-- Credit card (small) -->
  <g transform="translate(30,230) rotate(-8) scale(0.85)">
    <rect x="-9" y="-6" width="18" height="12" rx="2"/>
    <line x1="-9" y1="-1" x2="9" y2="-1"/>
    <rect x="-7" y="2" width="5" height="2.5" rx="0.5"/>
  </g>

  <!-- Lock (small) -->
  <g transform="translate(80,234) scale(0.85)">
    <rect x="-5" y="-1" width="10" height="9" rx="1"/>
    <path d="M-3,-1 L-3,-4 A3,3,0,0,1,3,-4 L3,-1"/>
  </g>

  <!-- Music note (small) -->
  <g transform="translate(130,227) rotate(12) scale(0.85)">
    <line x1="2" y1="-7" x2="2" y2="4"/>
    <line x1="2" y1="-7" x2="8" y2="-9"/>
    <line x1="8" y1="-9" x2="8" y2="2"/>
    <path d="M2,4 A2.5,2,0,1,1,2,5"/>
    <path d="M8,2 A2.5,2,0,1,1,8,3"/>
  </g>

  <!-- Diamond (small) -->
  <g transform="translate(180,230) scale(0.85)">
    <polygon points="0,-9,7,0,0,9,-7,0"/>
    <line x1="-7" y1="0" x2="7" y2="0"/>
    <line x1="-4" y1="-5" x2="4" y2="-5"/>
  </g>

  <!-- Bar chart (small) -->
  <g transform="translate(230,227) rotate(-5) scale(0.85)">
    <line x1="-7" y1="7" x2="7" y2="7"/>
    <rect x="-6" y="1" width="3.5" height="6"/>
    <rect x="-1" y="-4" width="3.5" height="11"/>
    <rect x="4" y="-1" width="3.5" height="8"/>
  </g>

  <!-- Leaf (small) -->
  <g transform="translate(280,230) rotate(-20) scale(0.85)">
    <path d="M0,8 C-6,4,-8,-3,0,-8 C8,-3,6,4,0,8 Z"/>
    <line x1="0" y1="8" x2="0" y2="-6"/>
  </g>

  <!-- Clock (small) -->
  <g transform="translate(16,280) rotate(-5) scale(0.85)">
    <circle cx="0" cy="0" r="7"/>
    <line x1="0" y1="0" x2="0" y2="-4"/>
    <line x1="0" y1="0" x2="3" y2="2"/>
  </g>

  <!-- Shield (small) -->
  <g transform="translate(66,284) rotate(10) scale(0.85)">
    <path d="M0,-8 L7,-5 L7,1 Q7,7,0,10 Q-7,7,-7,1 L-7,-5 Z"/>
  </g>

  <!-- Sparkle (small) -->
  <g transform="translate(116,280) rotate(30) scale(0.85)">
    <path d="M0,-9 L1.5,-1.5 L9,0 L1.5,1.5 L0,9 L-1.5,1.5 L-9,0 L-1.5,-1.5 Z"/>
  </g>

  <!-- Sun (small) -->
  <g transform="translate(168,282) scale(0.85)">
    <circle cx="0" cy="0" r="4"/>
    <line x1="0" y1="-7" x2="0" y2="-5"/>
    <line x1="0" y1="5" x2="0" y2="7"/>
    <line x1="-7" y1="0" x2="-5" y2="0"/>
    <line x1="5" y1="0" x2="7" y2="0"/>
    <line x1="-5" y1="-5" x2="-3.5" y2="-3.5"/>
    <line x1="3.5" y1="-3.5" x2="5" y2="-5"/>
    <line x1="-5" y1="5" x2="-3.5" y2="3.5"/>
    <line x1="3.5" y1="3.5" x2="5" y2="5"/>
  </g>

  <!-- Wallet (small) -->
  <g transform="translate(220,280) rotate(5) scale(0.85)">
    <rect x="-8" y="-6" width="16" height="12" rx="2"/>
    <rect x="4" y="-3" width="5" height="6" rx="1"/>
    <circle cx="6.5" cy="0" r="1.2" fill="white" stroke="none"/>
  </g>

  <!-- Fire (small) -->
  <g transform="translate(270,282) rotate(-8) scale(0.85)">
    <path d="M0,8 C-5,8,-7,3,-4,-2 C-2,1,-1,0,0,-2 C1,-5,0,-9,2,-8 C4,-3,6,2,5,6 C5,8,3,9,0,8 Z"/>
  </g>

  <!-- NFC (small) -->
  <g transform="translate(310,288) scale(0.85)">
    <circle cx="0" cy="2" r="1.8" fill="white" stroke="none"/>
    <path d="M-4,-1 A5,5,0,0,1,4,-1"/>
    <path d="M-7,-4 A9,9,0,0,1,7,-4"/>
    <path d="M-10,-7 A13,13,0,0,1,10,-7"/>
  </g>

</svg>
